<?xml version="1.0" standalone="no"?>
<!DOCTYPE svg PUBLIC "-//W3C//DTD SVG 20010904//EN"
 "http://www.w3.org/TR/2001/REC-SVG-20010904/DTD/svg10.dtd">
<svg version="1.0" xmlns="http://www.w3.org/2000/svg"
 width="512.000000pt" height="512.000000pt" viewBox="0 0 512.000000 512.000000"
 preserveAspectRatio="xMidYMid meet">

<g transform="translate(0.000000,512.000000) scale(0.100000,-0.100000)"
fill="#000000" stroke="none">
<path d="M3030 5104 c-109 -30 -199 -106 -248 -212 -27 -57 -27 -59 -30 -324
l-3 -268 -888 0 -889 0 -253 -262 c-139 -145 -304 -315 -366 -379 l-113 -116
0 -1771 0 -1772 1650 0 1650 0 0 1885 0 1884 528 3 527 3 62 29 c76 35 153
113 191 193 l27 58 0 385 c0 384 0 385 -24 445 -33 82 -124 173 -206 206 l-60
24 -750 2 c-637 2 -758 0 -805 -13z m1606 -94 c49 -25 79 -49 105 -84 62 -81
64 -100 64 -496 l0 -355 -28 -57 c-32 -65 -89 -121 -156 -152 -45 -21 -56 -21
-801 -26 l-756 -5 -119 -104 -120 -105 -3 135 c-1 73 -1 341 0 594 l3 460 28
57 c44 89 126 151 226 168 25 4 370 7 767 7 l721 -2 69 -35z m-1884 -1169 l3
-379 175 153 175 154 183 0 182 1 -2 -1847 -3 -1848 -180 0 -180 0 -3 162 -2
163 -1210 0 -1210 0 -2 -162 -3 -163 -178 -3 -177 -2 0 1710 0 1710 332 0
c294 0 333 2 350 17 17 15 18 40 18 365 l0 348 865 0 865 0 2 -379z m-1805
-278 c-2 -2 -133 -2 -290 -1 l-285 3 286 299 287 299 3 -298 c1 -164 1 -300
-1 -302z m2081 -3365 l-3 -123 -1135 0 -1135 0 -3 123 -3 122 1141 0 1141 0
-3 -122z"/>
<path d="M3112 4653 l3 -38 78 -3 77 -3 0 -219 0 -220 40 0 40 0 0 220 0 219
78 3 77 3 3 38 3 37 -201 0 -201 0 3 -37z"/>
<path d="M3685 4681 c-38 -16 -60 -51 -60 -96 0 -36 6 -50 34 -79 l34 -35 -46
-43 c-52 -49 -64 -84 -48 -138 19 -64 52 -80 164 -80 81 0 98 3 121 21 l27 22
32 -31 32 -30 25 24 24 24 -32 33 -32 33 30 29 30 29 -27 28 -27 28 -31 -30
-31 -30 -49 50 -48 49 41 45 c34 37 42 53 42 83 0 40 -21 73 -57 92 -25 13
-118 14 -148 2z m132 -88 c5 -13 -52 -68 -69 -68 -18 0 -51 52 -44 70 4 13 17
15 58 13 28 -2 53 -8 55 -15z m-12 -233 c63 -64 54 -80 -44 -80 -71 0 -91 10
-91 46 0 20 60 84 78 84 4 0 30 -22 57 -50z"/>
<path d="M4289 4674 c-63 -19 -131 -81 -159 -145 -17 -42 -21 -66 -18 -118 5
-77 25 -125 75 -174 58 -59 95 -71 216 -75 l107 -4 0 35 0 35 -92 4 c-106 5
-156 23 -193 72 -57 75 -54 172 8 243 44 51 81 63 187 63 l90 0 0 40 0 40 -87
-1 c-49 0 -109 -7 -134 -15z"/>
<path d="M1200 3165 l0 -35 595 0 595 0 0 35 0 35 -595 0 -595 0 0 -35z"/>
<path d="M2600 3165 l0 -35 230 0 230 0 0 35 0 35 -230 0 -230 0 0 -35z"/>
<path d="M710 2765 l0 -35 535 0 535 0 0 35 0 35 -535 0 -535 0 0 -35z"/>
<path d="M1980 2765 l0 -35 180 0 180 0 0 35 0 35 -180 0 -180 0 0 -35z"/>
<path d="M2510 2765 l0 -35 275 0 275 0 0 35 0 35 -275 0 -275 0 0 -35z"/>
<path d="M710 2400 l0 -40 1175 0 1175 0 0 40 0 40 -1175 0 -1175 0 0 -40z"/>
<path d="M1250 1675 l0 -35 145 0 145 0 0 35 0 35 -145 0 -145 0 0 -35z"/>
<path d="M1730 1675 l0 -35 665 0 665 0 0 35 0 35 -665 0 -665 0 0 -35z"/>
<path d="M710 1315 l0 -35 590 0 590 0 0 35 0 35 -590 0 -590 0 0 -35z"/>
<path d="M2090 1315 l0 -35 485 0 485 0 0 35 0 35 -485 0 -485 0 0 -35z"/>
<path d="M710 940 l0 -40 210 0 210 0 0 40 0 40 -210 0 -210 0 0 -40z"/>
<path d="M1330 940 l0 -40 865 0 865 0 0 40 0 40 -865 0 -865 0 0 -40z"/>
<path d="M4249 3370 c-58 -30 -105 -91 -118 -149 -8 -37 -11 -426 -11 -1309
l1 -1257 97 -304 c99 -306 114 -338 147 -311 8 7 58 144 110 305 l95 293 0
1291 c0 1061 -2 1297 -13 1324 -21 49 -67 98 -112 118 -54 25 -148 24 -196 -1z
m171 -68 c37 -20 80 -89 80 -129 0 -23 0 -23 -150 -23 l-150 0 0 33 c0 102
124 169 220 119z m80 -257 l0 -35 -150 0 -150 0 0 35 0 35 150 0 150 0 0 -35z
m-190 -1235 l0 -1120 -55 0 -55 0 0 1120 0 1120 55 0 55 0 0 -1120z m190 0 l0
-1120 -55 0 -55 0 0 1120 0 1120 55 0 55 0 0 -1120z m-20 -1207 c0 -4 -15 -51
-32 -105 l-33 -99 -68 3 -68 3 -34 103 -33 102 134 0 c74 0 134 -3 134 -7z
m-90 -287 c0 -4 -27 -82 -36 -106 -4 -10 -13 3 -24 35 -26 72 -26 75 20 75 22
0 40 -2 40 -4z"/>
</g>
</svg>
